# xmcd CD database file
#
# Track frame offsets:
#	150
#	25010
#	46788
#	68180
#	95865
#	123658
#	148260
#	170090
#
# Disc length: 2662 seconds
#
# Revision: 0
# Processed by: cddbd v1.4PL0 Copyright (c) Steve Scherf et al.
# Submitted via: CDex 1.50
#
DISCID=750a6408
DTITLE=Billy Mitchell - In Focus
DYEAR=1986
DGENRE=Jazz
TTITLE0=Come In Out Of The Pain
TTITLE1=Someday We'll All Be Free
TTITLE2=It Could Only Be You
TTITLE3=Serengeti (The Adventure)
TTITLE4=As The City Sleeps
TTITLE5=Soft Touch
TTITLE6=The Juba Dancer
TTITLE7=Stand Up America (Long Version)
EXTD=YEAR: 1986
EXTT0=
EXTT1=
EXTT2=
EXTT3=
EXTT4=
EXTT5=
EXTT6=
EXTT7=
PLAYORDER=
